<?xml version="1.0" standalone="no"?><!DOCTYPE svg PUBLIC "-//W3C//DTD SVG 1.1//EN" "http://www.w3.org/Graphics/SVG/1.1/DTD/svg11.dtd"><svg t="1589439287295" class="icon" viewBox="0 0 1024 1024" version="1.1" xmlns="http://www.w3.org/2000/svg" p-id="1550" xmlns:xlink="http://www.w3.org/1999/xlink" width="90" height="90"><defs><style type="text/css">@font-face { font-family: element-icons; src: url("chrome-extension://moombeodfomdpjnpocobemoiaemednkg/fonts/element-icons.woff") format("woff"), url("chrome-extension://moombeodfomdpjnpocobemoiaemednkg/fonts/element-icons.ttf ") format("truetype"); }
</style></defs><path d="M596.1 736H117c-28.1 0-51-22.9-51-51V188.1c0-28.1 22.9-51 51-51h689.9c28.1 0 51 22.9 51 51V419h-42V188.1c0-4.9-4.1-9-9-9H117c-4.9 0-9 4.1-9 9V685c0 4.9 4.1 9 9 9h479.1v42z" fill="#e6e6e6" p-id="1551"></path><path d="M477.9 453.3c-8.3-3.1-17.5-2.9-25.6 0.6l-65.9 27.9c-9.6 4.1-20.7 1.4-27.5-6.5L264 364.1c-9.4-11-26.3-11.2-36-0.4L84 524.3V706c0 16.5 13.5 30 30 30h515.8c-22.1-31.9-35.1-70.6-35.1-112.4 0-31.5 7.4-61.3 20.5-87.7l-137.3-82.6zM794.9 458.2c-91.4 0-165.4 74.1-165.4 165.4S703.6 789 794.9 789s165.5-74 165.5-165.4-74.1-165.4-165.5-165.4z m0 284c-13.8 0-25-11.2-25-25s11.2-25 25-25 25 11.2 25 25-11.1 25-25 25z m25-91.4c0 13.8-11.3 25-25 25-13.8 0-25-11.2-25-25V527.2c0-13.8 11.3-25 25-25s25 11.3 25 25v123.6z" fill="#e6e6e6" p-id="1552"></path></svg>