<?xml version="1.0" standalone="no"?><!DOCTYPE svg PUBLIC "-//W3C//DTD SVG 1.1//EN" "http://www.w3.org/Graphics/SVG/1.1/DTD/svg11.dtd"><svg t="1589439362411" class="icon" viewBox="0 0 1251 1024" version="1.1" xmlns="http://www.w3.org/2000/svg" p-id="2586" xmlns:xlink="http://www.w3.org/1999/xlink" width="109.951171875" height="90"><defs><style type="text/css">@font-face { font-family: element-icons; src: url("chrome-extension://moombeodfomdpjnpocobemoiaemednkg/fonts/element-icons.woff") format("woff"), url("chrome-extension://moombeodfomdpjnpocobemoiaemednkg/fonts/element-icons.ttf ") format("truetype"); }
</style></defs><path d="M500.963556 702.634667L401.066667 564.451556c-13.198222-18.318222-34.702222-18.318222-47.900445 0L169.016889 819.2c-13.198222 18.318222-5.290667 33.166222 17.635555 33.166222h843.662223c22.926222 0 30.72-14.791111 17.294222-33.052444l-291.783111-398.961778c-13.425778-18.432-35.043556-18.261333-48.355556 0l-206.506666 282.282667zM284.216889 285.013333a81.066667 81.066667 0 1 0 162.076444 0 81.066667 81.066667 0 0 0-162.133333 0z" fill="#e6e6e6" p-id="2587"></path><path d="M61.212444 82.375111h1094.371556c-11.377778 0-20.366222-9.102222-20.366222-20.195555v891.448888c0-11.150222 8.988444-20.195556 20.366222-20.195555H61.212444c11.377778 0 20.366222 9.102222 20.366223 20.195555V62.179556a20.195556 20.195556 0 0 1-20.366223 20.195555zM0.568889 953.628444c0 33.393778 27.136 60.871111 60.700444 60.871112h1094.371556a60.871111 60.871111 0 0 0 60.700444-60.871112V62.179556a60.871111 60.871111 0 0 0-60.700444-60.871112H61.212444A60.871111 60.871111 0 0 0 0.568889 62.236444v891.448889z" fill="#e6e6e6" p-id="2588"></path></svg>