<svg data-v-1084b650="" xmlns="http://www.w3.org/2000/svg" viewBox="0 0 300 300"><!----> <!----> <rect data-v-1084b650="" fill="#F56B11" x="0" y="0" width="300px" height="300px" class="logo-background-square"></rect> <!----> <g data-v-1084b650="" id="6e1380e3-9d8d-053f-a856-941188b13493" fill="#ffffff" transform="matrix(4.899999999999999,0,0,4.899999999999999,29.631495940685312,163.6072970867157)"><path d="M15.16 10.79C15.12 9.90 15.06 7.07 15.06 5.74C15.06 4.03 14.14 2.95 12.38 2.95C10.47 2.95 9.58 3.82 9.13 4.66C8.85 3.75 8.36 2.95 6.68 2.95C5.39 2.95 4.49 3.61 4.14 4.51C4.14 4.12 4.16 3.67 4.17 3.21L0.91 3.21C0.92 3.82 0.94 4.42 0.94 4.94C0.94 7.73 0.84 10.79 0.84 10.79L4.20 10.79C4.16 9.87 4.09 8.18 4.09 7.01C4.09 6.01 4.27 5.04 5.17 5.04C6.08 5.04 6.33 5.82 6.33 7.01C6.33 8.22 6.27 9.91 6.26 10.79L9.66 10.79C9.62 9.90 9.56 8.34 9.56 7.01C9.56 5.99 9.80 5.04 10.65 5.04C11.55 5.04 11.83 5.82 11.83 7.01C11.83 8.22 11.77 9.91 11.76 10.79ZM23.74 8.39C23.09 8.74 22.16 9.13 21.15 9.13C20.15 9.13 19.91 8.39 19.91 7.69C21.73 8.18 24.12 7.50 24.12 5.52C24.12 3.92 22.90 2.95 20.72 2.95C18.28 2.95 16.56 4.24 16.56 7.01C16.56 9.95 18.34 11.05 20.78 11.05C22.30 11.05 23.60 10.74 24.36 10.19ZM21.08 4.75C21.49 4.75 21.71 4.96 21.71 5.46C21.71 6.79 20.48 6.79 19.87 6.65C19.91 5.66 20.24 4.75 21.08 4.75ZM29.79 2.95C26.95 2.95 25.20 4.48 25.20 6.97C25.20 9.42 26.95 11.05 29.79 11.05C32.66 11.05 34.38 9.42 34.38 6.97C34.38 4.48 32.66 2.95 29.79 2.95ZM28.48 6.92C28.48 5.71 28.78 5.00 29.72 5.00C30.77 5.00 31.09 6.02 31.09 7.04C31.09 8.05 30.86 8.95 29.81 8.95C28.87 8.95 28.48 8.11 28.48 6.92ZM47.60 2.67L45.37 3.78C45.37 3.78 46.28 5.22 46.28 6.99C46.28 7.99 46.13 8.96 45.29 8.96C44.44 8.96 44.24 8.19 44.24 6.99C44.24 5.78 44.30 4.09 44.31 3.21L41.02 3.21C41.06 4.10 41.01 6.06 41.01 7.39C41.01 8.23 40.68 8.96 40.07 8.96C39.21 8.96 39.02 8.27 39.02 7.07C39.02 5.87 39.07 4.09 39.09 3.21L35.80 3.21C35.84 4.10 35.78 6.24 35.78 7.57C35.78 9.76 36.96 11.05 38.96 11.05C40.22 11.05 41.02 10.39 41.52 9.53C42.07 10.46 43.02 11.05 44.41 11.05C47.32 11.05 48.29 9.11 48.29 6.90C48.29 4.33 47.60 2.67 47.60 2.67Z"></path></g> <!----> <g data-v-1084b650="" id="d66da7bd-f166-4c1b-6c72-67004564937f" stroke="none" fill="#FFFFFF" transform="matrix(0.3194989044173195,0,0,0.3194989044173195,102.3629879743109,75.05822153933244)"><svg xmlns="http://www.w3.org/2000/svg" baseProfile="basic" viewBox="0 0 100 100"><g fill-rule="evenodd" clip-rule="evenodd"><path d="M27.8 7h.24c3.782 8.218 8.224 15.776 12 24 6.381-.5 13.83.07 20.16-.48A642.71 642.71 0 0 0 71.96 7h.24c7.237 17.172 21.862 33.197 23.04 56.16.241 4.696-.587 8.264-1.68 12.24-4.015.306-9.261-.621-12.48.479 1.035 1.296 3.424.721 5.521.721h6.239c-.838 2.361-2.18 4.22-3.84 5.76-3.039-.208-6.306-2.591-8.88-1.681 1.859 1.661 5.277 1.764 7.92 2.641-1.594 1.446-3.442 2.638-5.52 3.6-1.924-.636-2.944-2.176-5.04-2.64-.549 1.868 2.394 1.999 3.359 3.12-8.327 4.393-19.208 1.431-24-5.04-.794-1.073-1.03-2.364-1.439-3.36-2.436 3.593-5.646 6.279-10.32 8.641-6.24 3.151-11.692 4.345-18.96 1.199 2.201-1.959 5.494-2.825 7.44-5.04-2.929-.438-6.17 3.498-9.36 4.561-2.765-1.155-5.445-2.395-7.92-3.84 4.169-2.231 10.464-2.337 14.4-4.801-.732-1.116-2.44-.08-3.6.24-3.561.982-8.259 2.354-12 3.36-3.046-1.754-5.072-4.528-6.96-7.44 6.196-.872 14.938.549 21.12-.72-.593-1.306-3.322-.72-5.04-.72H7.4c-1.154-2.446-1.785-5.415-2.4-8.4v-6.96C8.612 37.732 20.173 24.333 27.8 7zM15.08 35.32c5.439-3.361 12.757-4.843 21.36-5.04-2.758-7.242-5.683-14.318-9.12-20.88-4.05 8.67-8.323 17.117-12.24 25.92zm48-5.04c8.713.007 16.575 2.145 21.6 5.04-4.483-8.396-8.175-17.584-12.72-25.92-3.013 6.749-6.583 14.214-8.88 20.88zM32.36 61.96c4.751-.141 4.103-16.594-.72-15.12-3.797 1.161-3.592 15.248.72 15.12zm40.56-2.16c4.796-.21 4.04-14.687-.96-12.96-3.553 1.227-3.7 13.164.96 12.96zM55.64 78.04c2.686-5.315 5.897-10.104 8.641-15.36-5.681.16-12-.319-17.28.24 3.131 4.788 5.52 10.32 8.639 15.12z"></path><path d="M47 92.68h-9.12c5.233-1.309 9.748-3.471 13.681-6.479.828-.634 3.181-3.151 3.6-3.12-.026-.002 2.421 2.446 2.64 2.64 3.234 2.859 6.17 4.809 10.32 6-6.754.606-14.254.467-21.121.959z"></path></g></svg></g></svg>