<svg data-v-1084b650="" xmlns="http://www.w3.org/2000/svg" viewBox="0 0 300 300"><!----> <!----> <rect data-v-1084b650="" fill="#F56B11" x="0" y="0" width="300px" height="300px" class="logo-background-square"></rect> <!----> <!----> <g data-v-1084b650="" id="2a088ce4-6fc6-fcd1-861c-523d46777045" fill="#FFFFFF" stroke="none" transform="matrix(0.7999999999999998,0,0,0.7999999999999998,29.661633300781276,30.384002685546903)"><svg xmlns="http://www.w3.org/2000/svg" baseProfile="basic" viewBox="0 0 100 100"><g fill-rule="evenodd" clip-rule="evenodd"><path d="M27.8 7h.24c3.782 8.218 8.224 15.776 12 24 6.381-.5 13.83.07 20.16-.48A642.71 642.71 0 0 0 71.96 7h.24c7.237 17.172 21.862 33.197 23.04 56.16.241 4.696-.587 8.264-1.68 12.24-4.015.306-9.261-.621-12.48.479 1.035 1.296 3.424.721 5.521.721h6.239c-.838 2.361-2.18 4.22-3.84 5.76-3.039-.208-6.306-2.591-8.88-1.681 1.859 1.661 5.277 1.764 7.92 2.641-1.594 1.446-3.442 2.638-5.52 3.6-1.924-.636-2.944-2.176-5.04-2.64-.549 1.868 2.394 1.999 3.359 3.12-8.327 4.393-19.208 1.431-24-5.04-.794-1.073-1.03-2.364-1.439-3.36-2.436 3.593-5.646 6.279-10.32 8.641-6.24 3.151-11.692 4.345-18.96 1.199 2.201-1.959 5.494-2.825 7.44-5.04-2.929-.438-6.17 3.498-9.36 4.561-2.765-1.155-5.445-2.395-7.92-3.84 4.169-2.231 10.464-2.337 14.4-4.801-.732-1.116-2.44-.08-3.6.24-3.561.982-8.259 2.354-12 3.36-3.046-1.754-5.072-4.528-6.96-7.44 6.196-.872 14.938.549 21.12-.72-.593-1.306-3.322-.72-5.04-.72H7.4c-1.154-2.446-1.785-5.415-2.4-8.4v-6.96C8.612 37.732 20.173 24.333 27.8 7zM15.08 35.32c5.439-3.361 12.757-4.843 21.36-5.04-2.758-7.242-5.683-14.318-9.12-20.88-4.05 8.67-8.323 17.117-12.24 25.92zm48-5.04c8.713.007 16.575 2.145 21.6 5.04-4.483-8.396-8.175-17.584-12.72-25.92-3.013 6.749-6.583 14.214-8.88 20.88zM32.36 61.96c4.751-.141 4.103-16.594-.72-15.12-3.797 1.161-3.592 15.248.72 15.12zm40.56-2.16c4.796-.21 4.04-14.687-.96-12.96-3.553 1.227-3.7 13.164.96 12.96zM55.64 78.04c2.686-5.315 5.897-10.104 8.641-15.36-5.681.16-12-.319-17.28.24 3.131 4.788 5.52 10.32 8.639 15.12z"></path><path d="M47 92.68h-9.12c5.233-1.309 9.748-3.471 13.681-6.479.828-.634 3.181-3.151 3.6-3.12-.026-.002 2.421 2.446 2.64 2.64 3.234 2.859 6.17 4.809 10.32 6-6.754.606-14.254.467-21.121.959z"></path></g></svg></g></svg>