<svg data-v-1084b650="" xmlns="http://www.w3.org/2000/svg" viewBox="0 0 300 300"><!----> <!----> <rect data-v-1084b650="" fill="#FFFFFF" x="0" y="0" width="300px" height="300px" class="logo-background-square"></rect> <!----> <!----> <g data-v-1084b650="" id="0da2cfd9-eda3-350d-0664-1f1766c8c259" fill="#F28F19" stroke="none" transform="matrix(0.6999999999999997,0,0,0.6999999999999997,44.999710732698475,44.998435211181686)"><svg xmlns="http://www.w3.org/2000/svg" viewBox="0.271 13.034 100 74.587"><circle cx="35.735" cy="49.639" r="4.397"></circle><circle cx="66.599" cy="49.639" r="4.397"></circle><path d="M43.107 60.675c0 4.168 7.546 7.55 7.546 7.55s7.55-3.382 7.55-7.55-15.096-4.168-15.096 0z"></path><path d="M98.236 69.06l-9.263-1.48a29.861 29.861 0 0 0 1.438-3.615l7.062 1.131c.13.021.258.028.386.028a2.417 2.417 0 0 0 .379-4.803l-6.675-1.067c.28-1.726.427-3.508.427-5.343 0-6.845-4.561-22.027-6.425-26.725-1.431-3.602-2.868-5.95-4.531-8.67a121.748 121.748 0 0 1-2.514-4.245 2.416 2.416 0 0 0-1.964-1.23c-.849-.062-1.611.324-2.097.987-3.021 4.139-7.708 8.75-9.605 8.75-.775 0-2.202-.176-3.855-.38-2.922-.36-6.562-.81-10.338-.81-3.111 0-6.12.394-8.776.741-1.843.241-3.434.449-4.533.449-3.984 0-8.543-6.114-9.827-8.256a2.418 2.418 0 0 0-2.058-1.175 2.373 2.373 0 0 0-2.072 1.145c-2.846 4.602-4.725 7.642-6.769 12.961-1.877 4.884-6.276 19.777-6.276 26.457 0 1.735.136 3.422.386 5.062L2.311 60.32a2.417 2.417 0 0 0 .764 4.775l8.765-1.402a29.993 29.993 0 0 0 1.403 3.62L2.307 69.06a2.418 2.418 0 1 0 .764 4.777l12.746-2.039c6.81 9.795 19.501 15.824 35.349 15.824 15.708 0 28.317-5.926 35.172-15.568l11.136 1.781a2.415 2.415 0 0 0 2.768-2.005 2.42 2.42 0 0 0-2.006-2.77zM51.165 82.786c-11.613 0-23.289-3.759-30.068-11.836l2.122-.338a2.417 2.417 0 0 0-.763-4.774l-4.327.693a24.89 24.89 0 0 1-1.531-3.601l6.621-1.057a2.418 2.418 0 0 0-.763-4.775l-6.967 1.115a30.546 30.546 0 0 1-.31-4.302c0-5.423 3.863-19.281 5.955-24.725 1.408-3.665 2.707-6.117 4.445-9.015 2.48 3.151 6.775 7.44 11.767 7.44 1.414 0 3.149-.227 5.16-.489 2.508-.328 5.352-.7 8.15-.7 3.479 0 6.953.428 9.746.772 1.886.232 3.375.417 4.446.417 3.909 0 8.436-4.511 11.267-7.873.271.448.534.88.793 1.301 1.609 2.635 2.883 4.715 4.16 7.93 2.081 5.247 6.083 19.387 6.083 24.941 0 1.6-.129 3.12-.352 4.58l-8.715-1.394a2.408 2.408 0 0 0-2.769 2.005 2.42 2.42 0 0 0 2.004 2.769l8.316 1.329a24.754 24.754 0 0 1-1.567 3.592l-5.984-.957c-1.332-.212-2.559.687-2.77 2.004s.688 2.558 2.003 2.769l3.694.592c-6.804 7.904-18.355 11.587-29.846 11.587z"></path></svg></g></svg>